<svg width="64" height="64" viewBox="0 0 64 64" fill="none" xmlns="http://www.w3.org/2000/svg">
<g clip-path="url(#clip0_19616_3093)">
<path d="M4.41016 44.9302H59.5903C58.8103 46.7502 57.0103 48.0202 54.9103 48.0202H9.09017C6.99004 48.0202 5.19003 46.7502 4.41016 44.9302Z" fill="#D22F2F"/>
<path d="M59.3602 30.6899C59.3002 34.5399 58.3202 37.34 56.4302 39.01C55.1202 40.17 53.5302 40.63 52.2002 40.79C53.1702 39.26 54.0002 37.29 54.0602 34.9299C54.0902 34.0599 54.0002 33.1899 53.8102 32.3299C55.6402 31.2699 57.8302 30.8499 59.3602 30.6899Z" fill="#8AC24A"/>
<path d="M45.9496 27C48.7396 29.65 50.1196 32.27 50.0696 34.8C50.0096 37.29 48.5296 39.25 47.5296 40.29C45.0196 38.78 43.5796 36.98 43.2496 34.94C42.7398 31.9 44.6196 28.77 45.9496 27Z" fill="#CCDB39"/>
<path d="M41.7203 40.9301H36.8203C36.9903 39.7301 38.0203 38.8 39.2703 38.8C39.8003 38.8 40.3003 38.9701 40.7103 39.2701C40.9803 39.7001 41.2803 40.1201 41.6203 40.5301C41.6603 40.6601 41.7003 40.7901 41.7203 40.9301Z" fill="#FEC300"/>
<path d="M31.7197 40.93C31.9097 36.96 35.1697 33.77 39.1797 33.73C39.1697 34.33 39.1897 34.95 39.2997 35.57C39.3097 35.65 39.3397 35.72 39.3497 35.8C39.3197 35.8 39.2897 35.8 39.2697 35.8C36.3597 35.8 33.9797 38.07 33.7997 40.93H31.7197Z" fill="#FE6F00"/>
<path d="M26.29 40.9301C26.48 33.93 32.22 28.29 39.2701 28.29C39.6801 28.29 40.0901 28.31 40.5001 28.35C40.1601 29.1 39.8501 29.9 39.6201 30.74C39.5001 30.73 39.3901 30.72 39.2701 30.72C33.5601 30.72 28.91 35.2701 28.72 40.9301H26.29Z" fill="#FEC300"/>
<path d="M29.1102 27.69C28.3802 28.24 27.6802 28.84 27.0502 29.5C26.3102 28.94 25.5302 28.45 24.7002 28.04C25.0702 27.13 25.9602 26.49 27.0002 26.49C27.9002 26.49 28.6802 26.97 29.1102 27.69Z" fill="#FEC300"/>
<path d="M27.0003 21.4199C29.8303 21.4199 32.2703 22.9899 33.5603 25.2899C32.9103 25.5299 32.2803 25.7899 31.6603 26.0999C30.7003 24.5399 28.9703 23.4899 27.0003 23.4899C24.6703 23.4899 22.6703 24.9599 21.8803 27.0199C21.2103 26.8499 20.5203 26.7199 19.8203 26.6499C20.8002 23.6199 23.6503 21.4199 27.0003 21.4199Z" fill="#FE6F00"/>
<path d="M36.5599 24.52C34.8699 20.92 31.2299 18.42 26.9999 18.42C21.9599 18.42 17.7499 21.97 16.6999 26.69C15.8199 26.8 14.9599 26.98 14.1299 27.24C14.9799 20.9 20.4199 15.98 26.9999 15.98C32.5099 15.98 37.2199 19.44 39.1099 24.29C38.2399 24.3 37.3899 24.39 36.5599 24.52Z" fill="#FEC300"/>
<path d="M20.2002 40.8601C20.2002 40.8801 20.2002 40.9101 20.2002 40.9301H16.6602C16.6702 40.9101 16.6702 40.8801 16.6702 40.8601C16.6702 39.8801 17.4602 39.0901 18.4302 39.0901C19.4102 39.0901 20.2002 39.8801 20.2002 40.8601Z" fill="#FEC300"/>
<path d="M39.2701 38.8C38.0201 38.8 36.9901 39.73 36.8201 40.93H41.7201C41.7001 40.79 41.6601 40.66 41.6201 40.53C41.2801 40.12 40.9801 39.7 40.7101 39.27C40.3001 38.97 39.8 38.8 39.2701 38.8ZM33.7999 40.93C33.9799 38.07 36.3599 35.8 39.27 35.8C39.29 35.8 39.32 35.8 39.35 35.8C39.34 35.72 39.31 35.65 39.3 35.57C39.19 34.95 39.17 34.33 39.18 33.73C35.1699 33.77 31.9099 36.96 31.7199 40.93H33.7999ZM18.4299 34.94C15.1699 34.94 12.5199 37.59 12.5199 40.86C12.5199 40.88 12.5099 40.91 12.5099 40.93H13.6799C13.6799 40.91 13.6699 40.88 13.6699 40.86C13.6699 38.23 15.8099 36.09 18.4299 36.09C20.1799 36.09 21.6999 37.05 22.5199 38.46C22.6099 37.95 22.7199 37.44 22.8499 36.95C21.7699 35.72 20.1899 34.94 18.4299 34.94ZM16.6599 40.93H20.1999C20.1999 40.91 20.1999 40.88 20.1999 40.86C20.1999 39.88 19.4099 39.09 18.4299 39.09C17.4599 39.09 16.6699 39.88 16.6699 40.86C16.6699 40.88 16.6699 40.91 16.6599 40.93ZM24.7001 28.04C25.5301 28.45 26.3101 28.94 27.0501 29.5C27.6801 28.84 28.3801 28.24 29.1101 27.69C28.6801 26.97 27.9001 26.49 27.0001 26.49C25.9601 26.49 25.0699 27.13 24.7001 28.04ZM33.5599 25.29C32.2699 22.99 29.8299 21.42 26.9999 21.42C23.6499 21.42 20.7999 23.62 19.8199 26.65C20.5199 26.72 21.2099 26.85 21.8799 27.02C22.6699 24.96 24.6699 23.49 26.9999 23.49C28.9699 23.49 30.6999 24.54 31.6599 26.1C32.2799 25.79 32.9099 25.53 33.5599 25.29ZM27.0001 18.42C31.2301 18.42 34.8701 20.92 36.5601 24.52C37.3901 24.39 38.2401 24.3 39.1101 24.29C37.2201 19.44 32.5101 15.98 27.0001 15.98C20.42 15.98 14.98 20.9 14.13 27.24C14.96 26.98 15.82 26.8 16.7 26.69C17.7499 21.97 21.9599 18.42 27.0001 18.42ZM28.7199 40.93C28.9099 35.27 33.5599 30.72 39.27 30.72C39.39 30.72 39.5 30.73 39.62 30.74C39.85 29.9 40.16 29.1 40.5 28.35C40.09 28.31 39.68 28.29 39.27 28.29C32.2199 28.29 26.4799 33.93 26.2899 40.93H28.7199ZM9.51989 40.86C9.51989 35.94 13.5199 31.94 18.4299 31.94C20.5299 31.94 22.4599 32.68 23.9799 33.9C24.1799 33.48 24.3999 33.08 24.6299 32.68C22.9099 31.37 20.7599 30.58 18.4299 30.58C12.7699 30.58 8.15989 35.19 8.15989 40.86C8.15989 40.88 8.14989 40.91 8.14989 40.93H9.51989C9.51989 40.91 9.51989 40.88 9.51989 40.86ZM62.0001 40.93C63.1001 40.93 64.0001 41.83 64.0001 42.93C64.0001 47.9401 59.9201 52.0201 54.9101 52.0201H9.09002C4.08001 52.0201 0 47.9401 0 42.93C0 41.83 0.900002 40.93 2 40.93H4.16001C4.16001 40.91 4.16001 40.88 4.16001 40.86C4.16001 36.12 6.48001 31.93 10.04 29.33C10.02 29.22 10 29.1 10 28.98C10 19.6 17.63 11.98 27.0001 11.98C34.6401 11.98 41.0801 17.05 43.2201 23.99C43.8101 23.25 44.2501 22.8 44.3101 22.74C45.0401 22 46.2101 21.94 47.0001 22.6C49.3801 24.55 51.1501 26.55 52.3301 28.59C56.4201 26.48 61.1201 26.59 61.3801 26.6C62.4101 26.63 63.2501 27.45 63.3101 28.48C63.6301 33.92 62.5501 38.1 60.1301 40.93H62.0001ZM59.59 44.93H4.41001C5.19001 46.7501 6.99001 48.0201 9.09002 48.0201H54.9101C57.01 48.0201 58.81 46.7501 59.59 44.93ZM56.43 39.01C58.32 37.34 59.3 34.54 59.36 30.69C57.83 30.85 55.64 31.27 53.81 32.33C54 33.19 54.09 34.06 54.06 34.93C54 37.29 53.17 39.26 52.2 40.79C53.53 40.63 55.12 40.17 56.43 39.01ZM50.0701 34.8C50.1201 32.27 48.7401 29.65 45.9501 27C44.6201 28.77 42.7401 31.9 43.2501 34.94C43.5801 36.98 45.0201 38.78 47.5301 40.29C48.53 39.25 50.0101 37.29 50.0701 34.8Z" fill="#263238"/>
<path d="M18.4298 34.9402C20.1898 34.9402 21.7698 35.7202 22.8498 36.9502C22.7198 37.4402 22.6098 37.9502 22.5198 38.4602C21.6998 37.0502 20.1798 36.0902 18.4298 36.0902C15.8098 36.0902 13.6698 38.2302 13.6698 40.8602C13.6698 40.8802 13.6798 40.9102 13.6798 40.9302H12.5098C12.5098 40.9102 12.5198 40.8802 12.5198 40.8602C12.5199 37.5902 15.1699 34.9402 18.4298 34.9402Z" fill="#FE6F00"/>
<path d="M18.4294 31.9401C13.5194 31.9401 9.51942 35.9401 9.51942 40.8601C9.51942 40.8801 9.51942 40.9101 9.51942 40.9301H8.14941C8.14941 40.9101 8.15941 40.8801 8.15941 40.8601C8.15941 35.1901 12.7694 30.5801 18.4294 30.5801C20.7594 30.5801 22.9094 31.3701 24.6294 32.6801C24.3994 33.0801 24.1794 33.4801 23.9794 33.9001C22.4596 32.6801 20.5294 31.9401 18.4294 31.9401Z" fill="#FEC300"/>
</g>
<defs>
<clipPath id="clip0_19616_3093">
<rect width="64" height="64" fill="white"/>
</clipPath>
</defs>
</svg>
